<svg width="37" height="37" viewBox="0 0 37 37" fill="none" xmlns="http://www.w3.org/2000/svg">
<path d="M31.8596 3.08447H28.7748V0H26.7195V3.08447H10.2768V0H8.22148V3.08447H5.1402C2.30728 3.08447 0 5.38967 0 8.22424V31.8602C0 34.6929 2.3054 37 5.1402 37H31.8598C34.6927 37 37 34.6948 37 31.8602L36.9983 13.3605V8.22073C36.9966 5.38805 34.6912 3.08447 31.8598 3.08447H31.8596ZM34.9408 31.8567C34.9408 33.5557 33.5587 34.9377 31.8596 34.9377H5.13998C3.43749 34.9377 2.05525 33.5557 2.05525 31.8567V13.3601H34.9406L34.9408 31.8567ZM34.9408 11.3051H2.05547V8.22064C2.05547 6.52 3.43766 5.13617 5.1402 5.13617H8.22494V7.19133H10.2769V5.13959H26.7195V7.19475H28.7749V5.13959H31.8596C33.5587 5.13959 34.9409 6.51996 34.9409 8.2206L34.9408 11.3051Z" fill="white"/>
<path fill-rule="evenodd" clip-rule="evenodd" d="M11.2318 20.2322C11.2318 20.2322 10.9167 19.2874 11.0213 18.7624C11.0739 18.1849 11.3364 17.8702 11.3364 17.8702L12.9124 16.0857C12.9124 16.0857 13.3328 15.771 13.911 16.3478C14.4366 16.9779 16.2232 18.9195 16.2232 18.9195C16.2232 18.9195 16.8541 19.5496 16.2759 20.179C15.6976 20.8091 15.1727 21.3859 15.1727 21.3859C15.1727 21.3859 15.0148 21.4911 15.3832 22.1205C15.6457 22.6455 18.3255 25.3215 18.8511 25.6369C19.482 25.9516 19.5866 25.8472 19.5866 25.8472C19.5866 25.8472 20.1648 25.3222 20.8476 24.7453C21.4784 24.1152 22.0559 24.7453 22.0559 24.7453C22.0559 24.7453 24.0523 26.5824 24.6306 27.1067C25.2615 27.6317 24.8931 28.1041 24.8931 28.1041L23.1591 29.6258C23.1591 29.6258 22.7914 29.8879 22.2658 29.993C21.6876 30.0456 20.7423 29.7828 20.7423 29.7828C17.2744 28.6284 12.3355 23.6947 11.2318 20.2309L11.2318 20.2322Z" fill="white"/>
</svg>
