<svg width="193" height="76" viewBox="0 0 193 76" fill="none" xmlns="http://www.w3.org/2000/svg">
<path d="M62.3197 18.7703C62.3197 15.3468 58.953 11.7108 53.1269 11.7108C46.5846 11.7108 39.3975 16.4565 38.2991 25.9243C37.1769 35.4865 43.194 39.7364 49.2588 39.7364C55.3236 39.7364 58.4993 37.3989 61.7466 34.2823C58.953 30.8116 55.3475 32.4171 54.6551 32.7713C53.891 33.149 52.912 33.6685 50.9063 33.6685C48.5664 33.6685 46.1786 32.6296 46.1786 28.3089C61.1736 26.8451 62.3197 22.1938 62.3197 18.7703ZM54.8938 19.3369C54.7983 20.3994 54.3685 22.2174 46.7756 23.2327C48.3754 17.6134 51.4316 17.1884 52.8404 17.1884C54.1537 17.1884 54.9894 18.2036 54.8938 19.3369ZM29.4884 20.2577C29.4884 20.2577 26.265 30.2686 26.0024 31.0949C25.9068 30.245 23.543 12.2774 23.543 12.2774C18.0512 12.2774 15.1143 16.1495 13.5623 20.2341C13.5623 20.2341 9.64642 30.2686 9.31214 31.1185C9.28826 30.3394 8.71521 20.3522 8.71521 20.3522C8.38092 15.3468 3.74873 12.301 0 12.301L4.53668 39.5239C10.2911 39.5002 13.3952 35.6517 15.0188 31.5671C15.0188 31.5671 18.481 22.7132 18.6243 22.3119C18.6482 22.6896 21.1075 39.5239 21.1075 39.5239C26.8858 39.5239 29.9899 35.9115 31.6613 31.9685L39.7557 12.301C34.049 12.301 31.0405 16.1495 29.4884 20.2577ZM83.5227 11.6636C79.965 11.6636 77.243 13.576 74.9508 16.3856V16.362L77.0042 0C72.2765 0 68.4323 4.06099 67.6921 10.1053L64.1105 39.3114C66.8325 39.3114 69.7216 38.5322 71.2737 36.5489C72.6585 38.3197 74.7359 39.7364 77.816 39.7364C85.791 39.7364 91.2589 30.5755 91.2589 21.9813C91.2112 14.1426 87.3669 11.6636 83.5227 11.6636ZM82.7825 25.7118C81.9468 30.5047 79.2487 33.7629 76.646 33.7629C74.0195 33.7629 72.8973 32.606 72.8973 32.606C73.3987 28.4033 73.7091 25.8298 74.6642 23.6104C75.6193 21.391 77.8877 17.8495 80.2515 17.8495C82.5676 17.8495 83.6182 20.8952 82.7825 25.7118ZM111.173 12.301H105.609L105.633 12.0177C106.015 8.42892 106.875 6.54009 109.716 6.23315C111.65 6.04427 112.51 5.05263 112.725 3.96655C112.892 3.11658 113.417 0.165273 113.417 0.165273C102.242 0.0944417 98.7325 4.86375 97.8252 12.1358L97.8013 12.301H97.6819C95.8673 12.301 93.8616 14.3315 93.5273 16.9051L93.4079 17.8495H97.1327L94.0048 43.396L93.0497 47.9764C93.1691 47.9764 93.3124 48 93.4318 48C98.6609 47.8111 102.004 43.7265 102.744 37.8003L105.179 17.8495H106.922C108.642 17.8495 110.647 16.1495 111.005 13.3163L111.173 12.301ZM140.112 11.8288C133.689 11.8288 127.624 16.5037 125.762 23.8465C123.899 31.1894 126.717 39.878 136.172 39.878C145.604 39.878 151.048 30.8352 151.048 23.3035C151.048 15.819 145.914 11.8288 140.112 11.8288ZM142.714 25.4757C142.38 28.8047 140.9 33.8574 136.841 33.8574C132.758 33.8574 133.331 27.9547 133.737 25.1451C134.166 22.1466 135.862 17.8731 139.515 17.8731C142.786 17.8731 143.096 21.7216 142.714 25.4757ZM182.781 20.2577C182.781 20.2577 179.557 30.2686 179.294 31.0949C179.199 30.245 176.835 12.2774 176.835 12.2774C171.343 12.2774 168.406 16.1495 166.854 20.2341C166.854 20.2341 162.939 30.2686 162.604 31.1185C162.58 30.3394 162.007 20.3522 162.007 20.3522C161.673 15.3468 157.041 12.301 153.292 12.301L157.805 39.5239C163.559 39.5002 166.663 35.6517 168.287 31.5671C168.287 31.5671 171.749 22.7132 171.869 22.3119C171.916 22.6896 174.352 39.5239 174.352 39.5239C180.13 39.5239 183.234 35.9115 184.906 31.9685L193 12.301C187.317 12.301 184.309 16.1495 182.781 20.2577ZM116.426 0.165273L111.746 37.4934L110.791 42.0974C110.91 42.0974 111.053 42.121 111.173 42.121C116.211 42.0502 119.792 37.6822 120.461 32.181L123.159 10.7664C123.971 4.22627 120.031 0.165273 116.426 0.165273Z" fill="white"/>
<path d="M43.0498 65.9759H48.9122V67.0383H44.3426V69.8799H48.6562V70.9551H44.3426V73.9375H48.9122V74.9999H43.0498V65.9759Z" fill="white"/>
<path d="M66.7189 74.9999H65.1701L62.5333 71.3775L59.8965 74.9999H58.3477L61.7909 70.3919L58.4885 65.9759H60.0373L62.5461 69.4191L65.0421 65.9759H66.5781L63.2885 70.4047L66.7189 74.9999Z" fill="white"/>
<path d="M76.7323 65.9759H80.4699C81.4256 65.9759 82.168 66.2106 82.6971 66.6799C83.2262 67.1493 83.4907 67.8149 83.4907 68.6767C83.4907 69.5301 83.2262 70.1957 82.6971 70.6735C82.168 71.1514 81.4256 71.3903 80.4699 71.3903H78.0507V74.9999H76.7323V65.9759ZM80.3291 70.3279C81.592 70.3279 82.2235 69.7775 82.2235 68.6767C82.2235 67.5845 81.592 67.0383 80.3291 67.0383H78.0507V70.3279H80.3291Z" fill="white"/>
<path d="M94.0423 65.9759H99.9047V67.0383H95.3351V69.8799H99.6487V70.9551H95.3351V73.9375H99.9047V74.9999H94.0423V65.9759Z" fill="white"/>
<path d="M117.811 74.9999H116.352L114.816 72.1071C114.646 71.7999 114.441 71.5866 114.202 71.4671C113.971 71.3391 113.664 71.2751 113.28 71.2751H111.795V74.9999H110.49V65.9759H114.33C115.328 65.9759 116.088 66.1978 116.608 66.6415C117.137 67.0853 117.402 67.7338 117.402 68.5871C117.402 69.2783 117.206 69.8458 116.813 70.2895C116.429 70.7333 115.879 71.0149 115.162 71.1343C115.606 71.2709 115.972 71.6037 116.263 72.1327L117.811 74.9999ZM114.176 70.2127C114.842 70.2127 115.332 70.0847 115.648 69.8287C115.972 69.5642 116.135 69.1589 116.135 68.6127C116.135 68.0666 115.977 67.6698 115.661 67.4223C115.345 67.1663 114.85 67.0383 114.176 67.0383H111.783V70.2127H114.176Z" fill="white"/>
<path d="M130.188 67.0767H127.141V65.9759H134.578V67.0767H131.519V74.9999H130.188V67.0767Z" fill="white"/>
<path d="M147.404 75.1023C146.704 75.1023 146.06 75.0085 145.471 74.8207C144.891 74.633 144.392 74.3557 143.974 73.9887L144.447 73.0159C144.891 73.3743 145.348 73.6346 145.817 73.7967C146.295 73.9503 146.828 74.0271 147.417 74.0271C148.091 74.0271 148.612 73.9034 148.979 73.6559C149.345 73.3999 149.529 73.0415 149.529 72.5807C149.529 72.1882 149.358 71.8981 149.017 71.7103C148.676 71.5141 148.129 71.3306 147.379 71.1599C146.662 71.0063 146.073 70.8314 145.612 70.6351C145.151 70.4389 144.789 70.1743 144.524 69.8415C144.268 69.5002 144.14 69.0693 144.14 68.5487C144.14 68.0197 144.277 67.5546 144.55 67.1535C144.831 66.7525 145.228 66.441 145.74 66.2191C146.252 65.9887 146.845 65.8735 147.519 65.8735C148.151 65.8735 148.744 65.9717 149.299 66.1679C149.862 66.3557 150.323 66.6287 150.681 66.9871L150.22 67.9599C149.802 67.6186 149.371 67.3669 148.927 67.2047C148.492 67.0341 148.027 66.9487 147.532 66.9487C146.884 66.9487 146.372 67.0853 145.996 67.3583C145.629 67.6229 145.446 67.9941 145.446 68.4719C145.446 68.8815 145.608 69.193 145.932 69.4063C146.256 69.6111 146.777 69.7989 147.494 69.9695C148.245 70.1402 148.851 70.3194 149.311 70.5071C149.781 70.6863 150.152 70.9381 150.425 71.2623C150.707 71.5781 150.847 71.9919 150.847 72.5039C150.847 73.0245 150.707 73.481 150.425 73.8735C150.152 74.2661 149.755 74.569 149.235 74.7823C148.723 74.9957 148.112 75.1023 147.404 75.1023Z" fill="white"/>
</svg>
